<svg xmlns="http://www.w3.org/2000/svg" width="16" height="13.406" viewBox="0 0 16 13.406"><path d="M0 13.406v-1.248c.061-.27.153-.525.278-.766.102-.212.243-.415.421-.615.18-.2.408-.349.69-.447.144-.045.333-.112.566-.203l.78-.304.914-.368.95-.395.896-.371.74-.314v-1.123l-.066-.241-.097-.329-.146-.422c-.198-.354-.355-.754-.472-1.204-.116-.447-.176-.926-.176-1.43 0-.662.074-1.221.221-1.679.147-.459.347-.833.603-1.121.253-.288.55-.499.888-.629.34-.132.708-.197 1.097-.197.384 0 .746.064 1.085.192.341.127.638.333.895.619.258.284.461.659.608 1.122.15.459.221 1.025.221 1.693 0 .492-.057.959-.17 1.402-.112.441-.27.839-.468 1.193l-.153.462-.114.358-.051.251v1.15l.75.315.87.364.906.373.87.35.74.29.535.197c.288.098.521.247.701.447.178.2.318.403.423.615.122.241.212.496.265.766v1.248h-16v-.001z" fill="#4E4B4B"/></svg>