<svg xmlns="http://www.w3.org/2000/svg" width="16" height="13.885" viewBox="0 0 16 13.885"><path d="M3.416 5.161c1.426 0 2.58-1.156 2.58-2.58 0-1.425-1.154-2.581-2.58-2.581-1.426 0-2.581 1.156-2.581 2.58 0 1.425 1.155 2.581 2.581 2.581m5.533 0c1.427 0 2.583-1.156 2.583-2.58 0-1.425-1.156-2.58-2.583-2.58-1.424-.001-2.577 1.155-2.577 2.579 0 1.425 1.153 2.581 2.577 2.581m7.051.22l-.011 7.819c0 .383-.241.494-.531.245l-1.795-1.72c-.124-.107-.231-.287-.323-.624h-.928v2.026c0 .42-.276.761-.697.759l-10.945-.091c-.42-.001-.77-.349-.77-.769v-6.804c0-.422.421-.915.843-.915h10.938c.42 0 .632.493.632.915v.74h.944c.087 0 .189-.239.307-.341l1.806-1.519c.292-.252.53-.106.53.279" fill="#4E4B4B"/></svg>