<svg xmlns="http://www.w3.org/2000/svg" width="16" height="13.6" viewBox="0 0 16 13.6"><path d="M11.128 8.273c0-1.766-1.436-3.202-3.202-3.202s-3.202 1.437-3.202 3.202c0 1.766 1.437 3.202 3.202 3.202 1.766.001 3.202-1.436 3.202-3.202m-8.05-3.49c0-.391-.316-.707-.708-.707-.391 0-.708.316-.708.707 0 .391.317.709.708.709.392 0 .708-.318.708-.709m12.922-.783v7.328c0 1.119-.691 2.272-1.81 2.272h-12.528c-1.119 0-1.662-1.153-1.662-2.272v-7.037c0-1.12.543-1.891 1.662-1.891h2.938l.331-1.125c.213-.633.903-1.275 1.572-1.275h2.845c.67 0 1.359.642 1.575 1.275l.329 1.125h2.938c1.119 0 1.81.771 1.81 1.891m-6.021 3.982c0 1.134-.92 2.052-2.053 2.052s-2.052-.917-2.052-2.052c0-1.133.918-2.052 2.052-2.052s2.053.92 2.053 2.052" fill="#4E4B4B"/></svg>