<svg xmlns="http://www.w3.org/2000/svg" width="16" height="16" viewBox="0 0 16 16"><path d="M8 0c-4.418 0-8 3.582-8 8s3.582 8 8 8 8-3.582 8-8-3.582-8-8-8zm0 15c-3.859 0-7-3.14-7-7s3.141-7 7-7 7 3.14 7 7-3.141 7-7 7zm5-6c-1.467 1.827-2.475 3-5 3s-3.533-1.173-5-3h.11c1.263 1.235 2.987 2 4.89 2 1.902 0 3.627-.765 4.89-2h.11zm-8-3.5c0-.829.447-1.5 1-1.5.553 0 1 .671 1 1.5s-.447 1.5-1 1.5c-.553 0-1-.671-1-1.5zm4 0c0-.829.447-1.5 1-1.5.553 0 1 .671 1 1.5s-.447 1.5-1 1.5c-.553 0-1-.671-1-1.5z" fill="#4D4B4B"/></svg>